<?xml version="1.0" encoding="UTF-8" standalone="no"?>
<!DOCTYPE svg PUBLIC "-//W3C//DTD SVG 1.1//EN"
 "http://www.w3.org/Graphics/SVG/1.1/DTD/svg11.dtd">
<!-- Generated by graphviz version 2.40.1 (20161225.0304)
 -->
<!-- Title: dependencies Pages: 1 -->
<svg width="5570pt" height="284pt"
 viewBox="0.00 0.00 5570.00 284.00" xmlns="http://www.w3.org/2000/svg" xmlns:xlink="http://www.w3.org/1999/xlink">
<g id="graph0" class="graph" transform="scale(1 1) rotate(0) translate(4 280)">
<title>dependencies</title>
<polygon fill="#ffffff" stroke="transparent" points="-4,4 -4,-280 5566,-280 5566,4 -4,4"/>
<text text-anchor="start" x="2760.0091" y="-42.4" font-family="sans-serif" font-weight="bold" font-size="14.00" fill="#000000">Legend</text>
<polygon fill="#ffffb3" stroke="transparent" points="2547,-10 2547,-30 2567,-30 2567,-10 2547,-10"/>
<text text-anchor="start" x="2570.629" y="-15.4" font-family="sans-serif" font-size="14.00" fill="#000000"> &#160;Declarations</text>
<polygon fill="#8dd3c7" stroke="transparent" points="2660,-10 2660,-30 2680,-30 2680,-10 2660,-10"/>
<text text-anchor="start" x="2683.7251" y="-15.4" font-family="sans-serif" font-size="14.00" fill="#000000"> &#160;Module</text>
<polygon fill="#80b1d3" stroke="transparent" points="2746,-10 2746,-30 2766,-30 2766,-10 2746,-10"/>
<text text-anchor="start" x="2769.7812" y="-15.4" font-family="sans-serif" font-size="14.00" fill="#000000"> &#160;Bootstrap</text>
<polygon fill="#fdb462" stroke="transparent" points="2843,-10 2843,-30 2863,-30 2863,-10 2843,-10"/>
<text text-anchor="start" x="2866.6732" y="-15.4" font-family="sans-serif" font-size="14.00" fill="#000000"> &#160;Providers</text>
<polygon fill="#fb8072" stroke="transparent" points="2939,-10 2939,-30 2959,-30 2959,-10 2939,-10"/>
<text text-anchor="start" x="2962.7258" y="-15.4" font-family="sans-serif" font-size="14.00" fill="#000000"> &#160;Exports</text>
<g id="clust1" class="cluster">
<title>cluster_AppModule</title>
<polygon fill="none" stroke="#000000" stroke-dasharray="1,5" points="8,-70 8,-268 5554,-268 5554,-70 8,-70"/>
</g>
<g id="clust2" class="cluster">
<title>cluster_AppModule_declarations</title>
<polygon fill="none" stroke="#000000" points="2230,-78 2230,-130 5546,-130 5546,-78 2230,-78"/>
</g>
<g id="clust25" class="cluster">
<title>cluster_AppModule_imports</title>
<polygon fill="none" stroke="#000000" points="1368,-78 1368,-130 2222,-130 2222,-78 1368,-78"/>
</g>
<g id="clust27" class="cluster">
<title>cluster_AppModule_bootstrap</title>
<polygon fill="none" stroke="#000000" points="2845,-208 2845,-260 2969,-260 2969,-208 2845,-208"/>
</g>
<g id="clust28" class="cluster">
<title>cluster_AppModule_providers</title>
<polygon fill="none" stroke="#000000" points="16,-78 16,-130 1360,-130 1360,-78 16,-78"/>
</g>
<!-- AppComponent -->
<g id="node1" class="node">
<title>AppComponent</title>
<polygon fill="#ffffb3" stroke="#000000" points="5537.9399,-122 5432.0601,-122 5432.0601,-86 5537.9399,-86 5537.9399,-122"/>
<text text-anchor="middle" x="5485" y="-99.8" font-family="Times,serif" font-size="14.00" fill="#000000">AppComponent</text>
</g>
<!-- AppModule -->
<g id="node23" class="node">
<title>AppModule</title>
<polygon fill="#8dd3c7" stroke="#000000" points="2948.6571,-187 2945.6571,-191 2924.6571,-191 2921.6571,-187 2865.3429,-187 2865.3429,-151 2948.6571,-151 2948.6571,-187"/>
<text text-anchor="middle" x="2907" y="-164.8" font-family="Times,serif" font-size="14.00" fill="#000000">AppModule</text>
</g>
<!-- AppComponent&#45;&gt;AppModule -->
<g id="edge1" class="edge">
<title>AppComponent&#45;&gt;AppModule</title>
<path fill="none" stroke="#000000" d="M5485,-122.3802C5485,-146.2785 5485,-185 5485,-185 5485,-185 2958.8014,-185 2958.8014,-185"/>
<polygon fill="#000000" stroke="#000000" points="2958.8014,-181.5001 2948.8014,-185 2958.8014,-188.5001 2958.8014,-181.5001"/>
</g>
<!-- NavbarComponent -->
<g id="node2" class="node">
<title>NavbarComponent</title>
<polygon fill="#ffffb3" stroke="#000000" points="5414.0297,-122 5291.9703,-122 5291.9703,-86 5414.0297,-86 5414.0297,-122"/>
<text text-anchor="middle" x="5353" y="-99.8" font-family="Times,serif" font-size="14.00" fill="#000000">NavbarComponent</text>
</g>
<!-- NavbarComponent&#45;&gt;AppModule -->
<g id="edge2" class="edge">
<title>NavbarComponent&#45;&gt;AppModule</title>
<path fill="none" stroke="#000000" d="M5353,-122.3228C5353,-145.6602 5353,-183 5353,-183 5353,-183 2958.6841,-183 2958.6841,-183"/>
<polygon fill="#000000" stroke="#000000" points="2958.6841,-179.5001 2948.6841,-183 2958.684,-186.5001 2958.6841,-179.5001"/>
</g>
<!-- LoginComponent -->
<g id="node3" class="node">
<title>LoginComponent</title>
<polygon fill="#ffffb3" stroke="#000000" points="5273.2758,-122 5158.7242,-122 5158.7242,-86 5273.2758,-86 5273.2758,-122"/>
<text text-anchor="middle" x="5216" y="-99.8" font-family="Times,serif" font-size="14.00" fill="#000000">LoginComponent</text>
</g>
<!-- LoginComponent&#45;&gt;AppModule -->
<g id="edge3" class="edge">
<title>LoginComponent&#45;&gt;AppModule</title>
<path fill="none" stroke="#000000" d="M5216,-122.2479C5216,-145.0179 5216,-181 5216,-181 5216,-181 2959.0481,-181 2959.0481,-181"/>
<polygon fill="#000000" stroke="#000000" points="2959.0481,-177.5001 2949.0481,-181 2959.048,-184.5001 2959.0481,-177.5001"/>
</g>
<!-- RegisterComponent -->
<g id="node4" class="node">
<title>RegisterComponent</title>
<polygon fill="#ffffb3" stroke="#000000" points="5140.9846,-122 5013.0154,-122 5013.0154,-86 5140.9846,-86 5140.9846,-122"/>
<text text-anchor="middle" x="5077" y="-99.8" font-family="Times,serif" font-size="14.00" fill="#000000">RegisterComponent</text>
</g>
<!-- RegisterComponent&#45;&gt;AppModule -->
<g id="edge4" class="edge">
<title>RegisterComponent&#45;&gt;AppModule</title>
<path fill="none" stroke="#000000" d="M5077,-122.1554C5077,-144.3519 5077,-179 5077,-179 5077,-179 2958.891,-179 2958.891,-179"/>
<polygon fill="#000000" stroke="#000000" points="2958.891,-175.5001 2948.891,-179 2958.8909,-182.5001 2958.891,-175.5001"/>
</g>
<!-- HomeComponent -->
<g id="node5" class="node">
<title>HomeComponent</title>
<polygon fill="#ffffb3" stroke="#000000" points="4994.5451,-122 4879.4549,-122 4879.4549,-86 4994.5451,-86 4994.5451,-122"/>
<text text-anchor="middle" x="4937" y="-99.8" font-family="Times,serif" font-size="14.00" fill="#000000">HomeComponent</text>
</g>
<!-- HomeComponent&#45;&gt;AppModule -->
<g id="edge5" class="edge">
<title>HomeComponent&#45;&gt;AppModule</title>
<path fill="none" stroke="#000000" d="M4937,-122.0449C4937,-143.6623 4937,-177 4937,-177 4937,-177 2958.9335,-177 2958.9335,-177"/>
<polygon fill="#000000" stroke="#000000" points="2958.9335,-173.5001 2948.9335,-177 2958.9334,-180.5001 2958.9335,-173.5001"/>
</g>
<!-- DashboardComponent -->
<g id="node6" class="node">
<title>DashboardComponent</title>
<polygon fill="#ffffb3" stroke="#000000" points="4860.9734,-122 4719.0266,-122 4719.0266,-86 4860.9734,-86 4860.9734,-122"/>
<text text-anchor="middle" x="4790" y="-99.8" font-family="Times,serif" font-size="14.00" fill="#000000">DashboardComponent</text>
</g>
<!-- DashboardComponent&#45;&gt;AppModule -->
<g id="edge6" class="edge">
<title>DashboardComponent&#45;&gt;AppModule</title>
<path fill="none" stroke="#000000" d="M4790,-122.2843C4790,-143.3211 4790,-175 4790,-175 4790,-175 2958.9692,-175 2958.9692,-175"/>
<polygon fill="#000000" stroke="#000000" points="2958.9693,-171.5001 2948.9692,-175 2958.9692,-178.5001 2958.9693,-171.5001"/>
</g>
<!-- ProfileComponent -->
<g id="node7" class="node">
<title>ProfileComponent</title>
<polygon fill="#ffffb3" stroke="#000000" points="4700.9328,-122 4581.0672,-122 4581.0672,-86 4700.9328,-86 4700.9328,-122"/>
<text text-anchor="middle" x="4641" y="-99.8" font-family="Times,serif" font-size="14.00" fill="#000000">ProfileComponent</text>
</g>
<!-- ProfileComponent&#45;&gt;AppModule -->
<g id="edge7" class="edge">
<title>ProfileComponent&#45;&gt;AppModule</title>
<path fill="none" stroke="#000000" d="M4641,-122.1289C4641,-142.5724 4641,-173 4641,-173 4641,-173 2959.004,-173 2959.004,-173"/>
<polygon fill="#000000" stroke="#000000" points="2959.004,-169.5001 2949.004,-173 2959.0039,-176.5001 2959.004,-169.5001"/>
</g>
<!-- AdminDashboardComponent -->
<g id="node8" class="node">
<title>AdminDashboardComponent</title>
<polygon fill="#ffffb3" stroke="#000000" points="4563.3613,-122 4382.6387,-122 4382.6387,-86 4563.3613,-86 4563.3613,-122"/>
<text text-anchor="middle" x="4473" y="-99.8" font-family="Times,serif" font-size="14.00" fill="#000000">AdminDashboardComponent</text>
</g>
<!-- AdminDashboardComponent&#45;&gt;AppModule -->
<g id="edge8" class="edge">
<title>AdminDashboardComponent&#45;&gt;AppModule</title>
<path fill="none" stroke="#000000" d="M4473,-122.308C4473,-142.1455 4473,-171 4473,-171 4473,-171 2958.8867,-171 2958.8867,-171"/>
<polygon fill="#000000" stroke="#000000" points="2958.8868,-167.5001 2948.8867,-171 2958.8867,-174.5001 2958.8868,-167.5001"/>
</g>
<!-- ListGroupComponent -->
<g id="node9" class="node">
<title>ListGroupComponent</title>
<polygon fill="#ffffb3" stroke="#000000" points="4364.3781,-122 4225.6219,-122 4225.6219,-86 4364.3781,-86 4364.3781,-122"/>
<text text-anchor="middle" x="4295" y="-99.8" font-family="Times,serif" font-size="14.00" fill="#000000">ListGroupComponent</text>
</g>
<!-- ListGroupComponent&#45;&gt;AppModule -->
<g id="edge9" class="edge">
<title>ListGroupComponent&#45;&gt;AppModule</title>
<path fill="none" stroke="#000000" d="M4295,-122.1061C4295,-141.3391 4295,-169 4295,-169 4295,-169 2958.9182,-169 2958.9182,-169"/>
<polygon fill="#000000" stroke="#000000" points="2958.9183,-165.5001 2948.9182,-169 2958.9182,-172.5001 2958.9183,-165.5001"/>
</g>
<!-- IconComponent -->
<g id="node10" class="node">
<title>IconComponent</title>
<polygon fill="#ffffb3" stroke="#000000" points="4207.2078,-122 4100.7922,-122 4100.7922,-86 4207.2078,-86 4207.2078,-122"/>
<text text-anchor="middle" x="4154" y="-99.8" font-family="Times,serif" font-size="14.00" fill="#000000">IconComponent</text>
</g>
<!-- IconComponent&#45;&gt;AppModule -->
<g id="edge10" class="edge">
<title>IconComponent&#45;&gt;AppModule</title>
<path fill="none" stroke="#000000" d="M4154,-122.2222C4154,-140.8285 4154,-167 4154,-167 4154,-167 2958.8465,-167 2958.8465,-167"/>
<polygon fill="#000000" stroke="#000000" points="2958.8465,-163.5001 2948.8465,-167 2958.8465,-170.5001 2958.8465,-163.5001"/>
</g>
<!-- SidebarComponent -->
<g id="node11" class="node">
<title>SidebarComponent</title>
<polygon fill="#ffffb3" stroke="#000000" points="4083.0954,-122 3958.9046,-122 3958.9046,-86 4083.0954,-86 4083.0954,-122"/>
<text text-anchor="middle" x="4021" y="-99.8" font-family="Times,serif" font-size="14.00" fill="#000000">SidebarComponent</text>
</g>
<!-- SidebarComponent&#45;&gt;AppModule -->
<g id="edge11" class="edge">
<title>SidebarComponent&#45;&gt;AppModule</title>
<path fill="none" stroke="#000000" d="M4021,-122.302C4021,-140.2699 4021,-165 4021,-165 4021,-165 2958.9728,-165 2958.9728,-165"/>
<polygon fill="#000000" stroke="#000000" points="2958.9728,-161.5001 2948.9728,-165 2958.9727,-168.5001 2958.9728,-161.5001"/>
</g>
<!-- ProgressbarComponent -->
<g id="node12" class="node">
<title>ProgressbarComponent</title>
<polygon fill="#ffffb3" stroke="#000000" points="3940.9158,-122 3793.0842,-122 3793.0842,-86 3940.9158,-86 3940.9158,-122"/>
<text text-anchor="middle" x="3867" y="-99.8" font-family="Times,serif" font-size="14.00" fill="#000000">ProgressbarComponent</text>
</g>
<!-- ProgressbarComponent&#45;&gt;AppModule -->
<g id="edge12" class="edge">
<title>ProgressbarComponent&#45;&gt;AppModule</title>
<path fill="none" stroke="#000000" d="M3867,-122.0225C3867,-139.3734 3867,-163 3867,-163 3867,-163 2958.8673,-163 2958.8673,-163"/>
<polygon fill="#000000" stroke="#000000" points="2958.8673,-159.5001 2948.8673,-163 2958.8673,-166.5001 2958.8673,-159.5001"/>
</g>
<!-- BoxComponent -->
<g id="node13" class="node">
<title>BoxComponent</title>
<polygon fill="#ffffb3" stroke="#000000" points="3775.1695,-122 3670.8305,-122 3670.8305,-86 3775.1695,-86 3775.1695,-122"/>
<text text-anchor="middle" x="3723" y="-99.8" font-family="Times,serif" font-size="14.00" fill="#000000">BoxComponent</text>
</g>
<!-- BoxComponent&#45;&gt;AppModule -->
<g id="edge13" class="edge">
<title>BoxComponent&#45;&gt;AppModule</title>
<path fill="none" stroke="#000000" d="M3723,-122.0352C3723,-138.7344 3723,-161 3723,-161 3723,-161 2958.87,-161 2958.87,-161"/>
<polygon fill="#000000" stroke="#000000" points="2958.87,-157.5001 2948.87,-161 2958.8699,-164.5001 2958.87,-157.5001"/>
</g>
<!-- BoxesComponent -->
<g id="node14" class="node">
<title>BoxesComponent</title>
<polygon fill="#ffffb3" stroke="#000000" points="3653.3287,-122 3536.6713,-122 3536.6713,-86 3653.3287,-86 3653.3287,-122"/>
<text text-anchor="middle" x="3595" y="-99.8" font-family="Times,serif" font-size="14.00" fill="#000000">BoxesComponent</text>
</g>
<!-- BoxesComponent&#45;&gt;AppModule -->
<g id="edge14" class="edge">
<title>BoxesComponent&#45;&gt;AppModule</title>
<path fill="none" stroke="#000000" d="M3595,-122.0091C3595,-138.0494 3595,-159 3595,-159 3595,-159 2958.7446,-159 2958.7446,-159"/>
<polygon fill="#000000" stroke="#000000" points="2958.7447,-155.5001 2948.7446,-159 2958.7446,-162.5001 2958.7447,-155.5001"/>
</g>
<!-- TableComponent -->
<g id="node15" class="node">
<title>TableComponent</title>
<polygon fill="#ffffb3" stroke="#000000" points="3518.705,-122 3405.295,-122 3405.295,-86 3518.705,-86 3518.705,-122"/>
<text text-anchor="middle" x="3462" y="-99.8" font-family="Times,serif" font-size="14.00" fill="#000000">TableComponent</text>
</g>
<!-- TableComponent&#45;&gt;AppModule -->
<g id="edge15" class="edge">
<title>TableComponent&#45;&gt;AppModule</title>
<path fill="none" stroke="#000000" d="M3462,-122.2396C3462,-137.5706 3462,-157 3462,-157 3462,-157 2958.7152,-157 2958.7152,-157"/>
<polygon fill="#000000" stroke="#000000" points="2958.7152,-153.5001 2948.7152,-157 2958.7152,-160.5001 2958.7152,-153.5001"/>
</g>
<!-- ModalComponent -->
<g id="node16" class="node">
<title>ModalComponent</title>
<polygon fill="#ffffb3" stroke="#000000" points="3386.8823,-122 3269.1177,-122 3269.1177,-86 3386.8823,-86 3386.8823,-122"/>
<text text-anchor="middle" x="3328" y="-99.8" font-family="Times,serif" font-size="14.00" fill="#000000">ModalComponent</text>
</g>
<!-- ModalComponent&#45;&gt;AppModule -->
<g id="edge16" class="edge">
<title>ModalComponent&#45;&gt;AppModule</title>
<path fill="none" stroke="#000000" d="M3328,-122.1243C3328,-136.7832 3328,-155 3328,-155 3328,-155 2958.9062,-155 2958.9062,-155"/>
<polygon fill="#000000" stroke="#000000" points="2958.9063,-151.5001 2948.9062,-155 2958.9062,-158.5001 2958.9063,-151.5001"/>
</g>
<!-- AdminUsersComponent -->
<g id="node17" class="node">
<title>AdminUsersComponent</title>
<polygon fill="#ffffb3" stroke="#000000" points="3251.0912,-122 3098.9088,-122 3098.9088,-86 3251.0912,-86 3251.0912,-122"/>
<text text-anchor="middle" x="3175" y="-99.8" font-family="Times,serif" font-size="14.00" fill="#000000">AdminUsersComponent</text>
</g>
<!-- AdminUsersComponent&#45;&gt;AppModule -->
<g id="edge17" class="edge">
<title>AdminUsersComponent&#45;&gt;AppModule</title>
<path fill="none" stroke="#000000" d="M3175,-122.2458C3175,-136.1772 3175,-153 3175,-153 3175,-153 2958.875,-153 2958.875,-153"/>
<polygon fill="#000000" stroke="#000000" points="2958.875,-149.5001 2948.875,-153 2958.875,-156.5001 2958.875,-149.5001"/>
</g>
<!-- TableColumnsComponent -->
<g id="node18" class="node">
<title>TableColumnsComponent</title>
<polygon fill="#ffffb3" stroke="#000000" points="3080.7674,-122 2917.2326,-122 2917.2326,-86 3080.7674,-86 3080.7674,-122"/>
<text text-anchor="middle" x="2999" y="-99.8" font-family="Times,serif" font-size="14.00" fill="#000000">TableColumnsComponent</text>
</g>
<!-- TableColumnsComponent&#45;&gt;AppModule -->
<g id="edge18" class="edge">
<title>TableColumnsComponent&#45;&gt;AppModule</title>
<path fill="none" stroke="#000000" d="M2932.9723,-122.1061C2932.9723,-122.1061 2932.9723,-140.991 2932.9723,-140.991"/>
<polygon fill="#000000" stroke="#000000" points="2929.4724,-140.9909 2932.9723,-150.991 2936.4724,-140.991 2929.4724,-140.9909"/>
</g>
<!-- AdminRegisterComponent -->
<g id="node19" class="node">
<title>AdminRegisterComponent</title>
<polygon fill="#ffffb3" stroke="#000000" points="2899.3724,-122 2732.6276,-122 2732.6276,-86 2899.3724,-86 2899.3724,-122"/>
<text text-anchor="middle" x="2816" y="-99.8" font-family="Times,serif" font-size="14.00" fill="#000000">AdminRegisterComponent</text>
</g>
<!-- AdminRegisterComponent&#45;&gt;AppModule -->
<g id="edge19" class="edge">
<title>AdminRegisterComponent&#45;&gt;AppModule</title>
<path fill="none" stroke="#000000" d="M2882.304,-122.1061C2882.304,-122.1061 2882.304,-140.991 2882.304,-140.991"/>
<polygon fill="#000000" stroke="#000000" points="2878.8041,-140.9909 2882.304,-150.991 2885.8041,-140.991 2878.8041,-140.9909"/>
</g>
<!-- UploadFileComponent -->
<g id="node20" class="node">
<title>UploadFileComponent</title>
<polygon fill="#ffffb3" stroke="#000000" points="2714.323,-122 2569.677,-122 2569.677,-86 2714.323,-86 2714.323,-122"/>
<text text-anchor="middle" x="2642" y="-99.8" font-family="Times,serif" font-size="14.00" fill="#000000">UploadFileComponent</text>
</g>
<!-- UploadFileComponent&#45;&gt;AppModule -->
<g id="edge20" class="edge">
<title>UploadFileComponent&#45;&gt;AppModule</title>
<path fill="none" stroke="#000000" d="M2642,-122.2458C2642,-136.1772 2642,-153 2642,-153 2642,-153 2855.3022,-153 2855.3022,-153"/>
<polygon fill="#000000" stroke="#000000" points="2855.3023,-156.5001 2865.3022,-153 2855.3022,-149.5001 2855.3023,-156.5001"/>
</g>
<!-- FileSelectDirective -->
<g id="node21" class="node">
<title>FileSelectDirective</title>
<polygon fill="#ffffb3" stroke="#000000" points="2552.0688,-122 2427.9312,-122 2427.9312,-86 2552.0688,-86 2552.0688,-122"/>
<text text-anchor="middle" x="2490" y="-99.8" font-family="Times,serif" font-size="14.00" fill="#000000">FileSelectDirective</text>
</g>
<!-- FileSelectDirective&#45;&gt;AppModule -->
<g id="edge21" class="edge">
<title>FileSelectDirective&#45;&gt;AppModule</title>
<path fill="none" stroke="#000000" d="M2490,-122.1243C2490,-136.7832 2490,-155 2490,-155 2490,-155 2855.1072,-155 2855.1072,-155"/>
<polygon fill="#000000" stroke="#000000" points="2855.1072,-158.5001 2865.1072,-155 2855.1071,-151.5001 2855.1072,-158.5001"/>
</g>
<!-- UploadPortfolioComponent -->
<g id="node22" class="node">
<title>UploadPortfolioComponent</title>
<polygon fill="#ffffb3" stroke="#000000" points="2410.3201,-122 2237.6799,-122 2237.6799,-86 2410.3201,-86 2410.3201,-122"/>
<text text-anchor="middle" x="2324" y="-99.8" font-family="Times,serif" font-size="14.00" fill="#000000">UploadPortfolioComponent</text>
</g>
<!-- UploadPortfolioComponent&#45;&gt;AppModule -->
<g id="edge22" class="edge">
<title>UploadPortfolioComponent&#45;&gt;AppModule</title>
<path fill="none" stroke="#000000" d="M2324,-122.2396C2324,-137.5706 2324,-157 2324,-157 2324,-157 2855.0721,-157 2855.0721,-157"/>
<polygon fill="#000000" stroke="#000000" points="2855.0721,-160.5001 2865.0721,-157 2855.072,-153.5001 2855.0721,-160.5001"/>
</g>
<!-- AppComponent  -->
<g id="node30" class="node">
<title>AppComponent </title>
<polygon fill="#80b1d3" stroke="#000000" points="2961.439,-252 2852.561,-252 2852.561,-216 2961.439,-216 2961.439,-252"/>
<text text-anchor="middle" x="2907" y="-229.8" font-family="Times,serif" font-size="14.00" fill="#000000">AppComponent </text>
</g>
<!-- AppModule&#45;&gt;AppComponent  -->
<g id="edge29" class="edge">
<title>AppModule&#45;&gt;AppComponent </title>
<path fill="none" stroke="#000000" stroke-dasharray="1,5" d="M2907,-187.1061C2907,-187.1061 2907,-205.991 2907,-205.991"/>
<polygon fill="#000000" stroke="#000000" points="2903.5001,-205.9909 2907,-215.991 2910.5001,-205.991 2903.5001,-205.9909"/>
</g>
<!-- BrowserModule -->
<g id="node24" class="node">
<title>BrowserModule</title>
<polygon fill="#8dd3c7" stroke="#000000" points="2214.4734,-122 2211.4734,-126 2190.4734,-126 2187.4734,-122 2107.5266,-122 2107.5266,-86 2214.4734,-86 2214.4734,-122"/>
<text text-anchor="middle" x="2161" y="-99.8" font-family="Times,serif" font-size="14.00" fill="#000000">BrowserModule</text>
</g>
<!-- BrowserModule&#45;&gt;AppModule -->
<g id="edge23" class="edge">
<title>BrowserModule&#45;&gt;AppModule</title>
<path fill="none" stroke="#000000" d="M2161,-122.0091C2161,-138.0494 2161,-159 2161,-159 2161,-159 2855.2933,-159 2855.2933,-159"/>
<polygon fill="#000000" stroke="#000000" points="2855.2933,-162.5001 2865.2933,-159 2855.2933,-155.5001 2855.2933,-162.5001"/>
</g>
<!-- FormsModule -->
<g id="node25" class="node">
<title>FormsModule</title>
<polygon fill="#8dd3c7" stroke="#000000" points="2089.8288,-122 2086.8288,-126 2065.8288,-126 2062.8288,-122 1994.1712,-122 1994.1712,-86 2089.8288,-86 2089.8288,-122"/>
<text text-anchor="middle" x="2042" y="-99.8" font-family="Times,serif" font-size="14.00" fill="#000000">FormsModule</text>
</g>
<!-- FormsModule&#45;&gt;AppModule -->
<g id="edge24" class="edge">
<title>FormsModule&#45;&gt;AppModule</title>
<path fill="none" stroke="#000000" d="M2042,-122.0352C2042,-138.7344 2042,-161 2042,-161 2042,-161 2855.2793,-161 2855.2793,-161"/>
<polygon fill="#000000" stroke="#000000" points="2855.2793,-164.5001 2865.2793,-161 2855.2792,-157.5001 2855.2793,-164.5001"/>
</g>
<!-- HttpModule -->
<g id="node26" class="node">
<title>HttpModule</title>
<polygon fill="#8dd3c7" stroke="#000000" points="1976.4387,-122 1973.4387,-126 1952.4387,-126 1949.4387,-122 1891.5613,-122 1891.5613,-86 1976.4387,-86 1976.4387,-122"/>
<text text-anchor="middle" x="1934" y="-99.8" font-family="Times,serif" font-size="14.00" fill="#000000">HttpModule</text>
</g>
<!-- HttpModule&#45;&gt;AppModule -->
<g id="edge25" class="edge">
<title>HttpModule&#45;&gt;AppModule</title>
<path fill="none" stroke="#000000" d="M1934,-122.0225C1934,-139.3734 1934,-163 1934,-163 1934,-163 2855.1914,-163 2855.1914,-163"/>
<polygon fill="#000000" stroke="#000000" points="2855.1914,-166.5001 2865.1914,-163 2855.1914,-159.5001 2855.1914,-166.5001"/>
</g>
<!-- RouterModule.forRoot(args) -->
<g id="node27" class="node">
<title>RouterModule.forRoot(args)</title>
<polygon fill="#8dd3c7" stroke="#000000" points="1873.8419,-122 1870.8419,-126 1849.8419,-126 1846.8419,-122 1696.1581,-122 1696.1581,-86 1873.8419,-86 1873.8419,-122"/>
<text text-anchor="middle" x="1785" y="-99.8" font-family="Times,serif" font-size="14.00" fill="#000000">RouterModule.forRoot(args)</text>
</g>
<!-- RouterModule.forRoot(args)&#45;&gt;AppModule -->
<g id="edge26" class="edge">
<title>RouterModule.forRoot(args)&#45;&gt;AppModule</title>
<path fill="none" stroke="#000000" d="M1785,-122.302C1785,-140.2699 1785,-165 1785,-165 1785,-165 2855.064,-165 2855.064,-165"/>
<polygon fill="#000000" stroke="#000000" points="2855.0641,-168.5001 2865.064,-165 2855.064,-161.5001 2855.0641,-168.5001"/>
</g>
<!-- FlashMessagesModule -->
<g id="node28" class="node">
<title>FlashMessagesModule</title>
<polygon fill="#8dd3c7" stroke="#000000" points="1678.3047,-122 1675.3047,-126 1654.3047,-126 1651.3047,-122 1533.6953,-122 1533.6953,-86 1678.3047,-86 1678.3047,-122"/>
<text text-anchor="middle" x="1606" y="-99.8" font-family="Times,serif" font-size="14.00" fill="#000000">FlashMessagesModule</text>
</g>
<!-- FlashMessagesModule&#45;&gt;AppModule -->
<g id="edge27" class="edge">
<title>FlashMessagesModule&#45;&gt;AppModule</title>
<path fill="none" stroke="#000000" d="M1606,-122.2222C1606,-140.8285 1606,-167 1606,-167 1606,-167 2855.1869,-167 2855.1869,-167"/>
<polygon fill="#000000" stroke="#000000" points="2855.1869,-170.5001 2865.1869,-167 2855.1869,-163.5001 2855.1869,-170.5001"/>
</g>
<!-- NgbModule.forRoot() -->
<g id="node29" class="node">
<title>NgbModule.forRoot()</title>
<polygon fill="#8dd3c7" stroke="#000000" points="1516.026,-122 1513.026,-126 1492.026,-126 1489.026,-122 1375.974,-122 1375.974,-86 1516.026,-86 1516.026,-122"/>
<text text-anchor="middle" x="1446" y="-99.8" font-family="Times,serif" font-size="14.00" fill="#000000">NgbModule.forRoot()</text>
</g>
<!-- NgbModule.forRoot()&#45;&gt;AppModule -->
<g id="edge28" class="edge">
<title>NgbModule.forRoot()&#45;&gt;AppModule</title>
<path fill="none" stroke="#000000" d="M1446,-122.1061C1446,-141.3391 1446,-169 1446,-169 1446,-169 2855.2405,-169 2855.2405,-169"/>
<polygon fill="#000000" stroke="#000000" points="2855.2405,-172.5001 2865.2405,-169 2855.2404,-165.5001 2855.2405,-172.5001"/>
</g>
<!-- ValidateService -->
<g id="node31" class="node">
<title>ValidateService</title>
<ellipse fill="#fdb462" stroke="#000000" cx="1279" cy="-104" rx="72.9063" ry="18"/>
<text text-anchor="middle" x="1279" y="-99.8" font-family="Times,serif" font-size="14.00" fill="#000000">ValidateService</text>
</g>
<!-- ValidateService&#45;&gt;AppModule -->
<g id="edge30" class="edge">
<title>ValidateService&#45;&gt;AppModule</title>
<path fill="none" stroke="#000000" d="M1279,-122.308C1279,-142.1455 1279,-171 1279,-171 1279,-171 2855.1211,-171 2855.1211,-171"/>
<polygon fill="#000000" stroke="#000000" points="2855.1211,-174.5001 2865.1211,-171 2855.121,-167.5001 2855.1211,-174.5001"/>
</g>
<!-- AuthService -->
<g id="node32" class="node">
<title>AuthService</title>
<ellipse fill="#fdb462" stroke="#000000" cx="1129" cy="-104" rx="59.1083" ry="18"/>
<text text-anchor="middle" x="1129" y="-99.8" font-family="Times,serif" font-size="14.00" fill="#000000">AuthService</text>
</g>
<!-- AuthService&#45;&gt;AppModule -->
<g id="edge31" class="edge">
<title>AuthService&#45;&gt;AppModule</title>
<path fill="none" stroke="#000000" d="M1129,-122.1289C1129,-142.5724 1129,-173 1129,-173 1129,-173 2855.2361,-173 2855.2361,-173"/>
<polygon fill="#000000" stroke="#000000" points="2855.2361,-176.5001 2865.2361,-173 2855.2361,-169.5001 2855.2361,-176.5001"/>
</g>
<!-- AuthGuard -->
<g id="node33" class="node">
<title>AuthGuard</title>
<ellipse fill="#fdb462" stroke="#000000" cx="997" cy="-104" rx="54.4566" ry="18"/>
<text text-anchor="middle" x="997" y="-99.8" font-family="Times,serif" font-size="14.00" fill="#000000">AuthGuard</text>
</g>
<!-- AuthGuard&#45;&gt;AppModule -->
<g id="edge32" class="edge">
<title>AuthGuard&#45;&gt;AppModule</title>
<path fill="none" stroke="#000000" d="M997,-122.2843C997,-143.3211 997,-175 997,-175 997,-175 2855.3306,-175 2855.3306,-175"/>
<polygon fill="#000000" stroke="#000000" points="2855.3307,-178.5001 2865.3306,-175 2855.3306,-171.5001 2855.3307,-178.5001"/>
</g>
<!-- AdministratorGuard -->
<g id="node34" class="node">
<title>AdministratorGuard</title>
<ellipse fill="#fdb462" stroke="#000000" cx="835" cy="-104" rx="89.1838" ry="18"/>
<text text-anchor="middle" x="835" y="-99.8" font-family="Times,serif" font-size="14.00" fill="#000000">AdministratorGuard</text>
</g>
<!-- AdministratorGuard&#45;&gt;AppModule -->
<g id="edge33" class="edge">
<title>AdministratorGuard&#45;&gt;AppModule</title>
<path fill="none" stroke="#000000" d="M835,-122.0449C835,-143.6623 835,-177 835,-177 835,-177 2855.1428,-177 2855.1428,-177"/>
<polygon fill="#000000" stroke="#000000" points="2855.1428,-180.5001 2865.1428,-177 2855.1428,-173.5001 2855.1428,-180.5001"/>
</g>
<!-- UsersService -->
<g id="node35" class="node">
<title>UsersService</title>
<ellipse fill="#fdb462" stroke="#000000" cx="666" cy="-104" rx="61.9519" ry="18"/>
<text text-anchor="middle" x="666" y="-99.8" font-family="Times,serif" font-size="14.00" fill="#000000">UsersService</text>
</g>
<!-- UsersService&#45;&gt;AppModule -->
<g id="edge34" class="edge">
<title>UsersService&#45;&gt;AppModule</title>
<path fill="none" stroke="#000000" d="M666,-122.1554C666,-144.3519 666,-179 666,-179 666,-179 2855.2176,-179 2855.2176,-179"/>
<polygon fill="#000000" stroke="#000000" points="2855.2176,-182.5001 2865.2176,-179 2855.2175,-175.5001 2855.2176,-182.5001"/>
</g>
<!-- UtilitiesService -->
<g id="node36" class="node">
<title>UtilitiesService</title>
<ellipse fill="#fdb462" stroke="#000000" cx="515" cy="-104" rx="71.2152" ry="18"/>
<text text-anchor="middle" x="515" y="-99.8" font-family="Times,serif" font-size="14.00" fill="#000000">UtilitiesService</text>
</g>
<!-- UtilitiesService&#45;&gt;AppModule -->
<g id="edge35" class="edge">
<title>UtilitiesService&#45;&gt;AppModule</title>
<path fill="none" stroke="#000000" d="M515,-122.2479C515,-145.0179 515,-181 515,-181 515,-181 2855.2296,-181 2855.2296,-181"/>
<polygon fill="#000000" stroke="#000000" points="2855.2297,-184.5001 2865.2296,-181 2855.2296,-177.5001 2855.2297,-184.5001"/>
</g>
<!-- AdministratorsService -->
<g id="node37" class="node">
<title>AdministratorsService</title>
<ellipse fill="#fdb462" stroke="#000000" cx="328" cy="-104" rx="97.8459" ry="18"/>
<text text-anchor="middle" x="328" y="-99.8" font-family="Times,serif" font-size="14.00" fill="#000000">AdministratorsService</text>
</g>
<!-- AdministratorsService&#45;&gt;AppModule -->
<g id="edge36" class="edge">
<title>AdministratorsService&#45;&gt;AppModule</title>
<path fill="none" stroke="#000000" d="M328,-122.3228C328,-145.6602 328,-183 328,-183 328,-183 2855.1824,-183 2855.1824,-183"/>
<polygon fill="#000000" stroke="#000000" points="2855.1824,-186.5001 2865.1824,-183 2855.1823,-179.5001 2855.1824,-186.5001"/>
</g>
<!-- OrganizationsService -->
<g id="node38" class="node">
<title>OrganizationsService</title>
<ellipse fill="#fdb462" stroke="#000000" cx="118" cy="-104" rx="94.3176" ry="18"/>
<text text-anchor="middle" x="118" y="-99.8" font-family="Times,serif" font-size="14.00" fill="#000000">OrganizationsService</text>
</g>
<!-- OrganizationsService&#45;&gt;AppModule -->
<g id="edge37" class="edge">
<title>OrganizationsService&#45;&gt;AppModule</title>
<path fill="none" stroke="#000000" d="M118,-122.3802C118,-146.2785 118,-185 118,-185 118,-185 2855.1356,-185 2855.1356,-185"/>
<polygon fill="#000000" stroke="#000000" points="2855.1357,-188.5001 2865.1356,-185 2855.1356,-181.5001 2855.1357,-188.5001"/>
</g>
</g>
</svg>
